<?xml version="1.0" standalone="no"?>
<!DOCTYPE svg PUBLIC "-//W3C//DTD SVG 20010904//EN"
 "http://www.w3.org/TR/2001/REC-SVG-20010904/DTD/svg10.dtd">
<svg version="1.0" xmlns="http://www.w3.org/2000/svg"
 width="1000.000000pt" height="1000.000000pt" viewBox="0 0 1000.000000 1000.000000"
 preserveAspectRatio="xMidYMid meet">
<metadata>
Created by potrace 1.11, written by Peter Selinger 2001-2013
</metadata>
<g transform="translate(0.000000,1000.000000) scale(0.100000,-0.100000)"
fill="#000000" stroke="none">
<path d="M4700 9996 c-3 -2 -61 -10 -130 -16 -368 -33 -671 -91 -1025 -197
-82 -24 -154 -48 -159 -53 -7 -7 90 -374 165 -620 46 -154 684 -2440 804
-2883 14 -53 23 -106 20 -117 -6 -18 -4 -19 19 -10 14 5 43 18 65 29 64 33
160 67 261 92 83 20 119 23 280 24 159 0 198 -4 275 -23 305 -76 554 -236 720
-461 33 -44 61 -78 63 -77 1 2 -1 30 -7 62 -8 54 -7 61 14 88 l23 29 -67 59
c-37 32 -74 69 -81 83 -7 14 -24 32 -37 40 -12 9 -23 22 -23 29 0 8 -11 28
-25 44 -14 17 -25 37 -25 45 0 9 -4 19 -10 22 -5 3 -10 15 -10 25 0 10 -11 32
-25 48 -14 17 -25 37 -25 46 0 9 -4 16 -9 16 -7 0 -22 87 -23 130 0 15 90 345
356 1315 79 286 201 729 271 985 69 256 158 577 197 713 38 137 68 254 65 261
-6 14 -216 79 -423 131 -228 56 -432 91 -754 126 -104 12 -731 25 -740 15z"/>
<path d="M9255 6515 c-242 -68 -692 -193 -1000 -280 -775 -217 -1535 -427
-1881 -521 l-292 -79 40 -78 c152 -303 170 -694 46 -1007 -166 -422 -518 -707
-968 -786 -137 -24 -359 -15 -495 20 -148 37 -300 104 -410 179 l-50 34 -32
-43 c-18 -24 -33 -47 -33 -53 0 -5 11 -18 25 -29 14 -11 25 -23 25 -28 0 -15
34 -84 42 -84 4 0 8 -8 8 -17 0 -10 7 -31 15 -46 13 -26 6 -59 -131 -560 -80
-293 -167 -608 -194 -702 -26 -93 -113 -408 -193 -700 -114 -417 -370 -1355
-394 -1447 -4 -13 16 -23 105 -52 312 -101 647 -169 1042 -213 191 -21 666
-29 800 -14 52 6 160 18 240 26 196 22 402 58 600 106 174 42 430 116 443 128
4 5 -71 289 -167 632 -95 343 -259 930 -364 1304 -302 1081 -335 1205 -322
1219 5 8 8 20 4 29 -3 8 -1 18 5 22 6 3 11 21 11 38 0 53 36 167 52 167 4 0
10 16 14 35 3 19 10 35 15 35 5 0 9 10 9 23 0 12 9 28 20 35 11 7 20 16 20 22
0 5 21 39 47 76 36 52 65 79 131 123 47 31 90 59 96 62 37 20 55 27 84 34 18
3 32 10 32 14 0 4 16 14 35 21 25 10 34 18 30 29 -4 9 -9 44 -12 80 l-6 63 34
-7 c39 -9 783 -211 1709 -464 344 -94 856 -233 1138 -309 l512 -139 35 111
c96 301 157 612 206 1041 16 141 23 671 10 770 -6 44 -18 148 -26 230 -33 304
-94 599 -192 923 -35 116 -50 152 -62 151 -9 -1 -214 -57 -456 -124z"/>
<path d="M249 6553 c-55 -145 -152 -554 -188 -794 -46 -302 -55 -433 -55 -759
0 -372 27 -658 95 -994 53 -264 165 -642 190 -640 14 1 1110 302 1459 401 359
101 1471 409 1821 504 l347 94 -40 78 c-150 299 -170 676 -51 992 81 217 219
409 398 554 37 30 33 29 -50 -14 -52 -28 -113 -70 -145 -100 -30 -30 -75 -63
-100 -76 -25 -12 -59 -33 -77 -46 -17 -12 -36 -23 -42 -23 -6 0 -26 -9 -46
-20 -20 -11 -42 -20 -50 -20 -8 0 -15 -4 -15 -9 0 -15 -31 -18 -75 -8 -67 16
-831 222 -2117 573 -675 184 -1232 334 -1238 334 -6 0 -15 -12 -21 -27z"/>
</g>
</svg>
